<svg version="1.1" viewBox="0.0 0.0 1517.6614173228347 422.4540682414698" fill="none" stroke="none" stroke-linecap="square" stroke-miterlimit="10" xmlns:xlink="http://www.w3.org/1999/xlink" xmlns="http://www.w3.org/2000/svg"><clipPath id="p.0"><path d="m0 0l1517.6614 0l0 422.45407l-1517.6614 0l0 -422.45407z" clip-rule="nonzero"/></clipPath><g clip-path="url(#p.0)"><path fill="#ffffff" d="m0 0l1517.6614 0l0 422.45407l-1517.6614 0z" fill-rule="evenodd"/><path fill="#ffffff" d="m583.7218 158.88715l201.13385 0l0 201.13385l-201.13385 0z" fill-rule="evenodd"/><path stroke="#000000" stroke-width="2.0" stroke-linejoin="round" stroke-linecap="butt" d="m583.7218 158.88715l201.13385 0l0 201.13385l-201.13385 0z" fill-rule="evenodd"/><path fill="#000000" d="m624.993 185.80714l-3.1875 -13.359375l2.765625 0l2.015625 9.171875l2.4375 -9.171875l3.203125 0l2.34375 9.328125l2.046875 -9.328125l2.71875 0l-3.25 13.359375l-2.859375 0l-2.65625 -9.984375l-2.65625 9.984375l-2.921875 0zm15.718079 0l0 -13.359375l9.90625 0l0 2.265625l-7.21875 0l0 2.953125l6.71875 0l0 2.25l-6.71875 0l0 3.640625l7.46875 0l0 2.25l-10.15625 0zm12.4435425 -13.359375l5.34375 0q1.59375 0 2.359375 0.140625q0.78125 0.125 1.390625 0.546875q0.625 0.421875 1.03125 1.125q0.40625 0.6875 0.40625 1.546875q0 0.9375 -0.5 1.734375q-0.5 0.78125 -1.375 1.171875q1.21875 0.359375 1.875 1.21875q0.65625 0.84375 0.65625 2.0q0 0.921875 -0.421875 1.78125q-0.421875 0.859375 -1.15625 1.375q-0.734375 0.515625 -1.796875 0.625q-0.6875 0.078125 -3.265625 0.09375l-4.546875 0l0 -13.359375zm2.703125 2.234375l0 3.078125l1.765625 0q1.578125 0 1.953125 -0.046875q0.703125 -0.078125 1.09375 -0.46875q0.40625 -0.40625 0.40625 -1.046875q0 -0.625 -0.34375 -1.0q-0.34375 -0.390625 -1.015625 -0.484375q-0.40625 -0.03125 -2.3125 -0.03125l-1.546875 0zm0 5.296875l0 3.578125l2.5 0q1.453125 0 1.84375 -0.078125q0.609375 -0.109375 0.984375 -0.53125q0.375 -0.421875 0.375 -1.140625q0 -0.59375 -0.296875 -1.015625q-0.28125 -0.421875 -0.84375 -0.609375q-0.546875 -0.203125 -2.390625 -0.203125l-2.171875 0zm15.265625 1.484375l2.625 -0.25q0.234375 1.3125 0.953125 1.9375q0.734375 0.609375 1.96875 0.609375q1.296875 0 1.953125 -0.546875q0.671875 -0.546875 0.671875 -1.28125q0 -0.484375 -0.28125 -0.8125q-0.28125 -0.328125 -0.96875 -0.578125q-0.484375 -0.15625 -2.171875 -0.578125q-2.15625 -0.546875 -3.03125 -1.328125q-1.234375 -1.09375 -1.234375 -2.6875q0 -1.015625 0.578125 -1.90625q0.578125 -0.890625 1.65625 -1.34375q1.09375 -0.46875 2.640625 -0.46875q2.515625 0 3.78125 1.109375q1.28125 1.09375 1.34375 2.9375l-2.703125 0.109375q-0.171875 -1.03125 -0.75 -1.46875q-0.5625 -0.453125 -1.703125 -0.453125q-1.171875 0 -1.84375 0.46875q-0.421875 0.3125 -0.421875 0.84375q0 0.46875 0.40625 0.796875q0.5 0.4375 2.46875 0.90625q1.96875 0.453125 2.90625 0.953125q0.953125 0.5 1.484375 1.359375q0.53125 0.859375 0.53125 2.125q0 1.15625 -0.640625 2.15625q-0.640625 1.0 -1.8125 1.484375q-1.15625 0.484375 -2.890625 0.484375q-2.53125 0 -3.890625 -1.171875q-1.359375 -1.171875 -1.625 -3.40625zm13.1311035 4.34375l0 -13.359375l9.90625 0l0 2.265625l-7.21875 0l0 2.953125l6.71875 0l0 2.25l-6.71875 0l0 3.640625l7.46875 0l0 2.25l-10.15625 0zm12.4435425 0l0 -13.359375l5.6875 0q2.140625 0 3.109375 0.359375q0.96875 0.359375 1.546875 1.28125q0.578125 0.921875 0.578125 2.109375q0 1.5 -0.890625 2.484375q-0.875 0.96875 -2.625 1.234375q0.875 0.5 1.4375 1.125q0.578125 0.609375 1.53125 2.15625l1.640625 2.609375l-3.234375 0l-1.9375 -2.90625q-1.046875 -1.5625 -1.4375 -1.96875q-0.375 -0.40625 -0.8125 -0.546875q-0.421875 -0.15625 -1.34375 -0.15625l-0.546875 0l0 5.578125l-2.703125 0zm2.703125 -7.703125l2.0 0q1.9375 0 2.421875 -0.15625q0.484375 -0.171875 0.75 -0.578125q0.28125 -0.40625 0.28125 -1.0q0 -0.671875 -0.359375 -1.078125q-0.359375 -0.421875 -1.015625 -0.53125q-0.328125 -0.046875 -1.96875 -0.046875l-2.109375 0l0 3.390625zm13.838867 7.703125l-4.78125 -13.359375l2.9375 0l3.375 9.890625l3.265625 -9.890625l2.859375 0l-4.78125 13.359375l-2.875 0zm9.0372925 0l0 -13.359375l9.90625 0l0 2.265625l-7.21875 0l0 2.953125l6.71875 0l0 2.25l-6.71875 0l0 3.640625l7.46875 0l0 2.25l-10.15625 0zm12.4436035 0l0 -13.359375l5.6875 0q2.140625 0 3.109375 0.359375q0.96875 0.359375 1.546875 1.28125q0.578125 0.921875 0.578125 2.109375q0 1.5 -0.890625 2.484375q-0.875 0.96875 -2.625 1.234375q0.875 0.5 1.4375 1.125q0.578125 0.609375 1.53125 2.15625l1.640625 2.609375l-3.234375 0l-1.9375 -2.90625q-1.046875 -1.5625 -1.4375 -1.96875q-0.375 -0.40625 -0.8125 -0.546875q-0.421875 -0.15625 -1.34375 -0.15625l-0.546875 0l0 5.578125l-2.703125 0zm2.703125 -7.703125l2.0 0q1.9375 0 2.421875 -0.15625q0.484375 -0.171875 0.75 -0.578125q0.28125 -0.40625 0.28125 -1.0q0 -0.671875 -0.359375 -1.078125q-0.359375 -0.421875 -1.015625 -0.53125q-0.328125 -0.046875 -1.96875 -0.046875l-2.109375 0l0 3.390625z" fill-rule="nonzero"/><path fill="#000000" fill-opacity="0.0" d="m516.40295 226.42258l0 105.700775" fill-rule="evenodd"/><path stroke="#000000" stroke-width="1.0" stroke-linejoin="round" stroke-linecap="butt" stroke-dasharray="1.0,3.0" d="m516.40295 226.42258l0 105.700775" fill-rule="evenodd"/><path fill="#ffffff" d="m255.68504 158.88715l201.13387 0l0 201.13385l-201.13387 0z" fill-rule="evenodd"/><path stroke="#000000" stroke-width="2.0" stroke-linejoin="round" stroke-linecap="butt" d="m255.68504 158.88715l201.13387 0l0 201.13385l-201.13387 0z" fill-rule="evenodd"/><path fill="#000000" d="m308.89832 172.44777l5.34375 0q1.59375 0 2.359375 0.140625q0.78125 0.125 1.390625 0.546875q0.625 0.421875 1.03125 1.125q0.40625 0.6875 0.40625 1.546875q0 0.9375 -0.5 1.734375q-0.5 0.78125 -1.375 1.171875q1.21875 0.359375 1.875 1.21875q0.65625 0.84375 0.65625 2.0q0 0.921875 -0.421875 1.78125q-0.421875 0.859375 -1.15625 1.375q-0.734375 0.515625 -1.796875 0.625q-0.6875 0.078125 -3.265625 0.09375l-4.546875 0l0 -13.359375zm2.703125 2.234375l0 3.078125l1.765625 0q1.578125 0 1.953125 -0.046875q0.703125 -0.078125 1.09375 -0.46875q0.40625 -0.40625 0.40625 -1.046875q0 -0.625 -0.34375 -1.0q-0.34375 -0.390625 -1.015625 -0.484375q-0.40625 -0.03125 -2.3125 -0.03125l-1.546875 0zm0 5.296875l0 3.578125l2.5 0q1.453125 0 1.84375 -0.078125q0.609375 -0.109375 0.984375 -0.53125q0.375 -0.421875 0.375 -1.140625q0 -0.59375 -0.296875 -1.015625q-0.28125 -0.421875 -0.84375 -0.609375q-0.546875 -0.203125 -2.390625 -0.203125l-2.171875 0zm10.769806 5.828125l0 -13.359375l5.6875 0q2.140625 0 3.109375 0.359375q0.96875 0.359375 1.546875 1.28125q0.578125 0.921875 0.578125 2.109375q0 1.5 -0.890625 2.484375q-0.875 0.96875 -2.625 1.234375q0.875 0.5 1.4375 1.125q0.578125 0.609375 1.53125 2.15625l1.640625 2.609375l-3.234375 0l-1.9375 -2.90625q-1.046875 -1.5625 -1.4375 -1.96875q-0.375 -0.40625 -0.8125 -0.546875q-0.421875 -0.15625 -1.34375 -0.15625l-0.546875 0l0 5.578125l-2.703125 0zm2.703125 -7.703125l2.0 0q1.9375 0 2.421875 -0.15625q0.484375 -0.171875 0.75 -0.578125q0.28125 -0.40625 0.28125 -1.0q0 -0.671875 -0.359375 -1.078125q-0.359375 -0.421875 -1.015625 -0.53125q-0.328125 -0.046875 -1.96875 -0.046875l-2.109375 0l0 3.390625zm10.222961 1.109375q0 -2.046875 0.609375 -3.421875q0.453125 -1.03125 1.234375 -1.828125q0.796875 -0.8125 1.734375 -1.203125q1.25 -0.53125 2.875 -0.53125q2.953125 0 4.71875 1.828125q1.78125 1.828125 1.78125 5.09375q0 3.234375 -1.765625 5.0625q-1.75 1.828125 -4.6875 1.828125q-2.984375 0 -4.75 -1.8125q-1.75 -1.828125 -1.75 -5.015625zm2.78125 -0.09375q0 2.265625 1.046875 3.4375q1.046875 1.171875 2.65625 1.171875q1.609375 0 2.640625 -1.15625q1.046875 -1.171875 1.046875 -3.484375q0 -2.296875 -1.015625 -3.421875q-1.0 -1.140625 -2.671875 -1.140625q-1.671875 0 -2.6875 1.15625q-1.015625 1.140625 -1.015625 3.4375zm14.167664 6.6875l-3.1875 -13.359375l2.765625 0l2.015625 9.171875l2.4375 -9.171875l3.203125 0l2.34375 9.328125l2.046875 -9.328125l2.71875 0l-3.25 13.359375l-2.859375 0l-2.65625 -9.984375l-2.65625 9.984375l-2.921875 0zm15.030548 -4.34375l2.625 -0.25q0.234375 1.3125 0.953125 1.9375q0.734375 0.609375 1.96875 0.609375q1.296875 0 1.953125 -0.546875q0.671875 -0.546875 0.671875 -1.28125q0 -0.484375 -0.28125 -0.8125q-0.28125 -0.328125 -0.96875 -0.578125q-0.484375 -0.15625 -2.171875 -0.578125q-2.15625 -0.546875 -3.03125 -1.328125q-1.234375 -1.09375 -1.234375 -2.6875q0 -1.015625 0.578125 -1.90625q0.578125 -0.890625 1.65625 -1.34375q1.09375 -0.46875 2.640625 -0.46875q2.515625 0 3.78125 1.109375q1.28125 1.09375 1.34375 2.9375l-2.703125 0.109375q-0.171875 -1.03125 -0.75 -1.46875q-0.5625 -0.453125 -1.703125 -0.453125q-1.171875 0 -1.84375 0.46875q-0.421875 0.3125 -0.421875 0.84375q0 0.46875 0.40625 0.796875q0.5 0.4375 2.46875 0.90625q1.96875 0.453125 2.90625 0.953125q0.953125 0.5 1.484375 1.359375q0.53125 0.859375 0.53125 2.125q0 1.15625 -0.640625 2.15625q-0.640625 1.0 -1.8125 1.484375q-1.15625 0.484375 -2.890625 0.484375q-2.53125 0 -3.890625 -1.171875q-1.359375 -1.171875 -1.625 -3.40625zm13.131073 4.34375l0 -13.359375l9.90625 0l0 2.265625l-7.21875 0l0 2.953125l6.71875 0l0 2.25l-6.71875 0l0 3.640625l7.46875 0l0 2.25l-10.15625 0zm12.443573 0l0 -13.359375l5.6875 0q2.140625 0 3.109375 0.359375q0.96875 0.359375 1.546875 1.28125q0.578125 0.921875 0.578125 2.109375q0 1.5 -0.890625 2.484375q-0.875 0.96875 -2.625 1.234375q0.875 0.5 1.4375 1.125q0.578125 0.609375 1.53125 2.15625l1.640625 2.609375l-3.234375 0l-1.9375 -2.90625q-1.046875 -1.5625 -1.4375 -1.96875q-0.375 -0.40625 -0.8125 -0.546875q-0.421875 -0.15625 -1.34375 -0.15625l-0.546875 0l0 5.578125l-2.703125 0zm2.703125 -7.703125l2.0 0q1.9375 0 2.421875 -0.15625q0.484375 -0.171875 0.75 -0.578125q0.28125 -0.40625 0.28125 -1.0q0 -0.671875 -0.359375 -1.078125q-0.359375 -0.421875 -1.015625 -0.53125q-0.328125 -0.046875 -1.96875 -0.046875l-2.109375 0l0 3.390625z" fill-rule="nonzero"/><path fill="#d9ead3" d="m324.06693 251.05798l0 0c0 -6.575363 5.3303833 -11.905746 11.905762 -11.905746l47.62155 0l0 0c3.1576233 0 6.1858826 1.2543488 8.41864 3.4871063c2.2327576 2.2327576 3.4871216 5.261032 3.4871216 8.41864l0 47.621582c0 6.575348 -5.3303833 11.905731 -11.905762 11.905731l-47.62155 0c-6.5753784 0 -11.905762 -5.3303833 -11.905762 -11.905731z" fill-rule="evenodd"/><path stroke="#000000" stroke-width="1.0" stroke-linejoin="round" stroke-linecap="butt" d="m324.06693 251.05798l0 0c0 -6.575363 5.3303833 -11.905746 11.905762 -11.905746l47.62155 0l0 0c3.1576233 0 6.1858826 1.2543488 8.41864 3.4871063c2.2327576 2.2327576 3.4871216 5.261032 3.4871216 8.41864l0 47.621582c0 6.575348 -5.3303833 11.905731 -11.905762 11.905731l-47.62155 0c-6.5753784 0 -11.905762 -5.3303833 -11.905762 -11.905731z" fill-rule="evenodd"/><path fill="#d9ead3" d="m648.5722 246.31783l0 0c0 -6.575363 5.3303833 -11.905746 11.905701 -11.905746l47.621582 0l0 0c3.1575928 0 6.185913 1.2543488 8.41864 3.4871063c2.232788 2.2327576 3.4871216 5.261032 3.4871216 8.41864l0 47.621567c0 6.5753784 -5.3303833 11.905762 -11.905762 11.905762l-47.621582 0c-6.5753174 0 -11.905701 -5.3303833 -11.905701 -11.905762z" fill-rule="evenodd"/><path stroke="#000000" stroke-width="1.0" stroke-linejoin="round" stroke-linecap="butt" d="m648.5722 246.31783l0 0c0 -6.575363 5.3303833 -11.905746 11.905701 -11.905746l47.621582 0l0 0c3.1575928 0 6.185913 1.2543488 8.41864 3.4871063c2.232788 2.2327576 3.4871216 5.261032 3.4871216 8.41864l0 47.621567c0 6.5753784 -5.3303833 11.905762 -11.905762 11.905762l-47.621582 0c-6.5753174 0 -11.905701 -5.3303833 -11.905701 -11.905762z" fill-rule="evenodd"/><path fill="#fce5cd" d="m75.47244 274.86746l0 0c0 -17.725311 14.369186 -32.094498 32.09449 -32.094498c17.725296 0 32.09449 14.369186 32.09449 32.094498c0 17.72528 -14.369194 32.094482 -32.09449 32.094482c-17.725304 0 -32.09449 -14.369202 -32.09449 -32.094482z" fill-rule="evenodd"/><path fill="#c9b7a3" d="m93.94163 265.26883c0 -1.8463745 1.4967957 -3.3431702 3.3431778 -3.3431702c1.8463821 0 3.3431778 1.4967957 3.3431778 3.3431702c0 1.8463745 -1.4967957 3.3431702 -3.3431778 3.3431702c-1.8463821 0 -3.3431778 -1.4967957 -3.3431778 -3.3431702m20.564247 0c0 -1.8463745 1.4967957 -3.3431702 3.3431778 -3.3431702c1.8463821 0 3.3431778 1.4967957 3.3431778 3.3431702c0 1.8463745 -1.4967957 3.3431702 -3.3431778 3.3431702c-1.8463821 0 -3.3431778 -1.4967957 -3.3431778 -3.3431702" fill-rule="evenodd"/><path fill="#000000" fill-opacity="0.0" d="m90.17151 288.86407q17.395424 11.946838 34.75022 0" fill-rule="evenodd"/><path fill="#000000" fill-opacity="0.0" d="m75.47244 274.86746l0 0c0 -17.725311 14.369186 -32.094498 32.09449 -32.094498c17.725296 0 32.09449 14.369186 32.09449 32.094498c0 17.72528 -14.369194 32.094482 -32.09449 32.094482c-17.725304 0 -32.09449 -14.369202 -32.09449 -32.094482z" fill-rule="evenodd"/><path stroke="#000000" stroke-width="1.0" stroke-linejoin="round" stroke-linecap="butt" d="m93.94163 265.26883c0 -1.8463745 1.4967957 -3.3431702 3.3431778 -3.3431702c1.8463821 0 3.3431778 1.4967957 3.3431778 3.3431702c0 1.8463745 -1.4967957 3.3431702 -3.3431778 3.3431702c-1.8463821 0 -3.3431778 -1.4967957 -3.3431778 -3.3431702m20.564247 0c0 -1.8463745 1.4967957 -3.3431702 3.3431778 -3.3431702c1.8463821 0 3.3431778 1.4967957 3.3431778 3.3431702c0 1.8463745 -1.4967957 3.3431702 -3.3431778 3.3431702c-1.8463821 0 -3.3431778 -1.4967957 -3.3431778 -3.3431702" fill-rule="evenodd"/><path stroke="#000000" stroke-width="1.0" stroke-linejoin="round" stroke-linecap="butt" d="m90.17151 288.86407q17.395424 11.946838 34.75022 0" fill-rule="evenodd"/><path stroke="#000000" stroke-width="1.0" stroke-linejoin="round" stroke-linecap="butt" d="m75.47244 274.86746l0 0c0 -17.725311 14.369186 -32.094498 32.09449 -32.094498c17.725296 0 32.09449 14.369186 32.09449 32.094498c0 17.72528 -14.369194 32.094482 -32.09449 32.094482c-17.725304 0 -32.09449 -14.369202 -32.09449 -32.094482z" fill-rule="evenodd"/><path fill="#000000" fill-opacity="0.0" d="m177.64305 255.73491l146.42519 0" fill-rule="evenodd"/><path stroke="#000000" stroke-width="1.0" stroke-linejoin="round" stroke-linecap="butt" d="m177.64305 255.73491l140.42519 0" fill-rule="evenodd"/><path fill="#000000" stroke="#000000" stroke-width="1.0" stroke-linecap="butt" d="m318.06824 257.38663l4.5381165 -1.6517181l-4.5381165 -1.6517334z" fill-rule="evenodd"/><path fill="#000000" fill-opacity="0.0" d="m177.64305 293.13123l146.42519 0" fill-rule="evenodd"/><path stroke="#000000" stroke-width="1.0" stroke-linejoin="round" stroke-linecap="butt" d="m183.64305 293.13123l140.42519 0" fill-rule="evenodd"/><path fill="#000000" stroke="#000000" stroke-width="1.0" stroke-linecap="butt" d="m183.64305 291.4795l-4.538101 1.6517334l4.538101 1.6517334z" fill-rule="evenodd"/><path fill="#000000" fill-opacity="0.0" d="m396.00525 293.13123l253.16534 0" fill-rule="evenodd"/><path stroke="#000000" stroke-width="1.0" stroke-linejoin="round" stroke-linecap="butt" d="m402.00525 293.13123l247.16534 0" fill-rule="evenodd"/><path fill="#000000" stroke="#000000" stroke-width="1.0" stroke-linecap="butt" d="m402.00525 291.4795l-4.538086 1.6517334l4.538086 1.6517334z" fill-rule="evenodd"/><path fill="#000000" fill-opacity="0.0" d="m396.00525 255.73491l251.37006 -0.3779602" fill-rule="evenodd"/><path stroke="#000000" stroke-width="1.0" stroke-linejoin="round" stroke-linecap="butt" d="m396.00525 255.73491l245.37006 -0.368927" fill-rule="evenodd"/><path fill="#000000" stroke="#000000" stroke-width="1.0" stroke-linecap="butt" d="m641.3778 257.0177l4.5356445 -1.6585541l-4.5405884 -1.6448975z" fill-rule="evenodd"/><path fill="#ffffff" d="m909.87665 158.88715l201.13385 0l0 201.13385l-201.13385 0z" fill-rule="evenodd"/><path stroke="#000000" stroke-width="2.0" stroke-linejoin="round" stroke-linecap="butt" d="m909.87665 158.88715l201.13385 0l0 201.13385l-201.13385 0z" fill-rule="evenodd"/><path fill="#000000" d="m924.3792 172.44777l5.34375 0q1.59375 0 2.359375 0.140625q0.78125 0.125 1.390625 0.546875q0.625 0.421875 1.03125 1.125q0.40625 0.6875 0.40625 1.546875q0 0.9375 -0.5 1.734375q-0.5 0.78125 -1.375 1.171875q1.21875 0.359375 1.875 1.21875q0.65625 0.84375 0.65625 2.0q0 0.921875 -0.421875 1.78125q-0.421875 0.859375 -1.15625 1.375q-0.734375 0.515625 -1.796875 0.625q-0.6875 0.078125 -3.265625 0.09375l-4.546875 0l0 -13.359375zm2.703125 2.234375l0 3.078125l1.765625 0q1.578125 0 1.953125 -0.046875q0.703125 -0.078125 1.09375 -0.46875q0.40625 -0.40625 0.40625 -1.046875q0 -0.625 -0.34375 -1.0q-0.34375 -0.390625 -1.015625 -0.484375q-0.40625 -0.03125 -2.3125 -0.03125l-1.546875 0zm0 5.296875l0 3.578125l2.5 0q1.453125 0 1.84375 -0.078125q0.609375 -0.109375 0.984375 -0.53125q0.375 -0.421875 0.375 -1.140625q0 -0.59375 -0.296875 -1.015625q-0.28125 -0.421875 -0.84375 -0.609375q-0.546875 -0.203125 -2.390625 -0.203125l-2.171875 0zm22.816711 5.828125l-2.9375 0l-1.171875 -3.03125l-5.328125 0l-1.109375 3.03125l-2.859375 0l5.203125 -13.359375l2.84375 0l5.359375 13.359375zm-4.96875 -5.28125l-1.84375 -4.953125l-1.796875 4.953125l3.640625 0zm14.94165 0.375l2.609375 0.828125q-0.59375 2.1875 -2.0 3.25q-1.390625 1.0625 -3.546875 1.0625q-2.65625 0 -4.375 -1.8125q-1.703125 -1.828125 -1.703125 -4.984375q0 -3.328125 1.71875 -5.171875q1.71875 -1.84375 4.515625 -1.84375q2.453125 0 3.984375 1.4375q0.921875 0.859375 1.375 2.46875l-2.671875 0.640625q-0.234375 -1.046875 -0.984375 -1.640625q-0.75 -0.609375 -1.828125 -0.609375q-1.484375 0 -2.421875 1.078125q-0.921875 1.0625 -0.921875 3.4375q0 2.53125 0.90625 3.609375q0.921875 1.078125 2.375 1.078125q1.078125 0 1.84375 -0.671875q0.78125 -0.6875 1.125 -2.15625zm4.9573364 4.90625l0 -13.359375l2.703125 0l0 5.9375l5.4375 -5.9375l3.625 0l-5.015625 5.203125l5.296875 8.15625l-3.484375 0l-3.671875 -6.265625l-2.1875 2.234375l0 4.03125l-2.703125 0zm13.441711 0l0 -13.359375l9.90625 0l0 2.265625l-7.21875 0l0 2.953125l6.71875 0l0 2.25l-6.71875 0l0 3.640625l7.46875 0l0 2.25l-10.15625 0zm12.4747925 0l0 -13.359375l2.625 0l5.453125 8.921875l0 -8.921875l2.515625 0l0 13.359375l-2.703125 0l-5.390625 -8.703125l0 8.703125l-2.5 0zm13.426086 -13.359375l4.9375 0q1.65625 0 2.53125 0.265625q1.1875 0.34375 2.015625 1.234375q0.84375 0.875 1.28125 2.15625q0.4375 1.28125 0.4375 3.15625q0 1.640625 -0.40625 2.84375q-0.5 1.453125 -1.4375 2.359375q-0.703125 0.671875 -1.890625 1.0625q-0.890625 0.28125 -2.390625 0.28125l-5.078125 0l0 -13.359375zm2.703125 2.265625l0 8.84375l2.015625 0q1.125 0 1.625 -0.125q0.65625 -0.171875 1.078125 -0.5625q0.4375 -0.390625 0.703125 -1.28125q0.28125 -0.90625 0.28125 -2.453125q0 -1.546875 -0.28125 -2.375q-0.265625 -0.828125 -0.765625 -1.28125q-0.484375 -0.46875 -1.234375 -0.640625q-0.5625 -0.125 -2.21875 -0.125l-1.203125 0zm15.28125 6.75l2.625 -0.25q0.234375 1.3125 0.953125 1.9375q0.734375 0.609375 1.96875 0.609375q1.296875 0 1.953125 -0.546875q0.671875 -0.546875 0.671875 -1.28125q0 -0.484375 -0.28125 -0.8125q-0.28125 -0.328125 -0.96875 -0.578125q-0.484375 -0.15625 -2.171875 -0.578125q-2.15625 -0.546875 -3.03125 -1.328125q-1.234375 -1.09375 -1.234375 -2.6875q0 -1.015625 0.578125 -1.90625q0.578125 -0.890625 1.65625 -1.34375q1.09375 -0.46875 2.640625 -0.46875q2.515625 0 3.78125 1.109375q1.28125 1.09375 1.34375 2.9375l-2.703125 0.109375q-0.171875 -1.03125 -0.75 -1.46875q-0.5625 -0.453125 -1.703125 -0.453125q-1.171875 0 -1.84375 0.46875q-0.421875 0.3125 -0.421875 0.84375q0 0.46875 0.40625 0.796875q0.5 0.4375 2.46875 0.90625q1.96875 0.453125 2.90625 0.953125q0.953125 0.5 1.484375 1.359375q0.53125 0.859375 0.53125 2.125q0 1.15625 -0.640625 2.15625q-0.640625 1.0 -1.8125 1.484375q-1.15625 0.484375 -2.890625 0.484375q-2.53125 0 -3.890625 -1.171875q-1.359375 -1.171875 -1.625 -3.40625zm13.1311035 4.34375l0 -13.359375l9.90625 0l0 2.265625l-7.21875 0l0 2.953125l6.71875 0l0 2.25l-6.71875 0l0 3.640625l7.46875 0l0 2.25l-10.15625 0zm12.443481 0l0 -13.359375l5.6875 0q2.140625 0 3.109375 0.359375q0.96875 0.359375 1.546875 1.28125q0.578125 0.921875 0.578125 2.109375q0 1.5 -0.890625 2.484375q-0.875 0.96875 -2.625 1.234375q0.875 0.5 1.4375 1.125q0.578125 0.609375 1.53125 2.15625l1.640625 2.609375l-3.234375 0l-1.9375 -2.90625q-1.046875 -1.5625 -1.4375 -1.96875q-0.375 -0.40625 -0.8125 -0.546875q-0.421875 -0.15625 -1.34375 -0.15625l-0.546875 0l0 5.578125l-2.703125 0zm2.703125 -7.703125l2.0 0q1.9375 0 2.421875 -0.15625q0.484375 -0.171875 0.75 -0.578125q0.28125 -0.40625 0.28125 -1.0q0 -0.671875 -0.359375 -1.078125q-0.359375 -0.421875 -1.015625 -0.53125q-0.328125 -0.046875 -1.96875 -0.046875l-2.109375 0l0 3.390625zm13.838867 7.703125l-4.78125 -13.359375l2.9375 0l3.375 9.890625l3.265625 -9.890625l2.859375 0l-4.78125 13.359375l-2.875 0zm9.0373535 0l0 -13.359375l9.90625 0l0 2.265625l-7.21875 0l0 2.953125l6.71875 0l0 2.25l-6.71875 0l0 3.640625l7.46875 0l0 2.25l-10.15625 0zm12.4436035 0l0 -13.359375l5.6875 0q2.140625 0 3.109375 0.359375q0.96875 0.359375 1.546875 1.28125q0.578125 0.921875 0.578125 2.109375q0 1.5 -0.890625 2.484375q-0.875 0.96875 -2.625 1.234375q0.875 0.5 1.4375 1.125q0.578125 0.609375 1.53125 2.15625l1.640625 2.609375l-3.234375 0l-1.9375 -2.90625q-1.046875 -1.5625 -1.4375 -1.96875q-0.375 -0.40625 -0.8125 -0.546875q-0.421875 -0.15625 -1.34375 -0.15625l-0.546875 0l0 5.578125l-2.703125 0zm2.703125 -7.703125l2.0 0q1.9375 0 2.421875 -0.15625q0.484375 -0.171875 0.75 -0.578125q0.28125 -0.40625 0.28125 -1.0q0 -0.671875 -0.359375 -1.078125q-0.359375 -0.421875 -1.015625 -0.53125q-0.328125 -0.046875 -1.96875 -0.046875l-2.109375 0l0 3.390625z" fill-rule="nonzero"/><path fill="#d9ead3" d="m976.60895 246.31783l0 0c0 -6.575363 5.3303833 -11.905746 11.905701 -11.905746l47.621582 0l0 0c3.1575928 0 6.185913 1.2543488 8.418701 3.4871063c2.232666 2.2327576 3.4870605 5.261032 3.4870605 8.41864l0 47.621567c0 6.5753784 -5.3303223 11.905762 -11.905762 11.905762l-47.621582 0c-6.5753174 0 -11.905701 -5.3303833 -11.905701 -11.905762z" fill-rule="evenodd"/><path stroke="#000000" stroke-width="1.0" stroke-linejoin="round" stroke-linecap="butt" d="m976.60895 246.31783l0 0c0 -6.575363 5.3303833 -11.905746 11.905701 -11.905746l47.621582 0l0 0c3.1575928 0 6.185913 1.2543488 8.418701 3.4871063c2.232666 2.2327576 3.4870605 5.261032 3.4870605 8.41864l0 47.621567c0 6.5753784 -5.3303223 11.905762 -11.905762 11.905762l-47.621582 0c-6.5753174 0 -11.905701 -5.3303833 -11.905701 -11.905762z" fill-rule="evenodd"/><path fill="#000000" fill-opacity="0.0" d="m721.64307 293.13123l254.96063 0" fill-rule="evenodd"/><path stroke="#000000" stroke-width="1.0" stroke-linejoin="round" stroke-linecap="butt" d="m727.64307 293.13123l248.96063 0" fill-rule="evenodd"/><path fill="#000000" stroke="#000000" stroke-width="1.0" stroke-linecap="butt" d="m727.64307 291.4795l-4.538147 1.6517334l4.538147 1.6517334z" fill-rule="evenodd"/><path fill="#000000" fill-opacity="0.0" d="m721.64307 255.73491l253.16534 -0.3779602" fill-rule="evenodd"/><path stroke="#000000" stroke-width="1.0" stroke-linejoin="round" stroke-linecap="butt" d="m721.64307 255.73491l247.16534 -0.36898804" fill-rule="evenodd"/><path fill="#000000" stroke="#000000" stroke-width="1.0" stroke-linecap="butt" d="m968.81085 257.01764l4.5356445 -1.6585083l-4.5405273 -1.6449432z" fill-rule="evenodd"/><path fill="#000000" fill-opacity="0.0" d="m846.44354 207.40945l0 130.80313" fill-rule="evenodd"/><path stroke="#000000" stroke-width="1.0" stroke-linejoin="round" stroke-linecap="butt" stroke-dasharray="1.0,3.0" d="m846.44354 207.40945l0 130.80313" fill-rule="evenodd"/><path fill="#000000" fill-opacity="0.0" d="m55.062992 188.44489l105.00787 0l0 42.015747l-105.00787 0z" fill-rule="evenodd"/><path fill="#000000" d="m82.99416 202.00551l2.6875 0l0 7.234375q0 1.71875 0.109375 2.234375q0.171875 0.828125 0.8125 1.328125q0.65625 0.484375 1.78125 0.484375q1.15625 0 1.734375 -0.46875q0.59375 -0.46875 0.703125 -1.140625q0.125 -0.6875 0.125 -2.28125l0 -7.390625l2.6875 0l0 7.015625q0 2.40625 -0.21875 3.40625q-0.21875 0.984375 -0.8125 1.671875q-0.578125 0.6875 -1.5625 1.09375q-0.984375 0.40625 -2.5625 0.40625q-1.921875 0 -2.90625 -0.4375q-0.984375 -0.453125 -1.5625 -1.15625q-0.578125 -0.703125 -0.75 -1.484375q-0.265625 -1.140625 -0.265625 -3.390625l0 -7.125zm12.801071 9.015625l2.625 -0.25q0.234375 1.3125 0.953125 1.9375q0.734375 0.609375 1.96875 0.609375q1.296875 0 1.953125 -0.546875q0.671875 -0.546875 0.671875 -1.28125q0 -0.484375 -0.28125 -0.8125q-0.28125 -0.328125 -0.96875 -0.578125q-0.484375 -0.15625 -2.171875 -0.578125q-2.15625 -0.546875 -3.03125 -1.328125q-1.234375 -1.09375 -1.234375 -2.6875q0 -1.015625 0.578125 -1.90625q0.578125 -0.890625 1.65625 -1.34375q1.09375 -0.46875 2.640625 -0.46875q2.515625 0 3.78125 1.109375q1.28125 1.09375 1.34375 2.9375l-2.703125 0.109375q-0.171875 -1.03125 -0.75 -1.46875q-0.5625 -0.453125 -1.703125 -0.453125q-1.171875 0 -1.84375 0.46875q-0.421875 0.3125 -0.421875 0.84375q0 0.46875 0.40625 0.796875q0.5 0.4375 2.46875 0.90625q1.96875 0.453125 2.90625 0.953125q0.953125 0.5 1.484375 1.359375q0.53125 0.859375 0.53125 2.125q0 1.15625 -0.640625 2.15625q-0.640625 1.0 -1.8125 1.484375q-1.15625 0.484375 -2.890625 0.484375q-2.53125 0 -3.890625 -1.171875q-1.359375 -1.171875 -1.625 -3.40625zm13.131073 4.34375l0 -13.359375l9.90625 0l0 2.265625l-7.21875 0l0 2.953125l6.71875 0l0 2.25l-6.71875 0l0 3.640625l7.46875 0l0 2.25l-10.15625 0zm12.443573 0l0 -13.359375l5.6875 0q2.1406174 0 3.1093674 0.359375q0.96875 0.359375 1.546875 1.28125q0.578125 0.921875 0.578125 2.109375q0 1.5 -0.890625 2.484375q-0.875 0.96875 -2.625 1.234375q0.875 0.5 1.4375 1.125q0.578125 0.609375 1.53125 2.15625l1.640625 2.609375l-3.234375 0l-1.9375 -2.90625q-1.0468674 -1.5625 -1.4374924 -1.96875q-0.375 -0.40625 -0.8125 -0.546875q-0.421875 -0.15625 -1.34375 -0.15625l-0.546875 0l0 5.578125l-2.703125 0zm2.703125 -7.703125l2.0 0q1.9374924 0 2.4218674 -0.15625q0.484375 -0.171875 0.75 -0.578125q0.28125 -0.40625 0.28125 -1.0q0 -0.671875 -0.359375 -1.078125q-0.359375 -0.421875 -1.015625 -0.53125q-0.32811737 -0.046875 -1.9687424 -0.046875l-2.109375 0l0 3.390625z" fill-rule="nonzero"/><path fill="#000000" fill-opacity="0.0" d="m244.06299 97.8399l216.81891 0" fill-rule="evenodd"/><path stroke="#000000" stroke-width="3.0" stroke-linejoin="round" stroke-linecap="butt" d="m262.063 97.8399l180.81891 0" fill-rule="evenodd"/><path fill="#000000" stroke="#000000" stroke-width="3.0" stroke-linecap="butt" d="m262.063 92.8847l-13.614288 4.9552l13.614288 4.9551926z" fill-rule="evenodd"/><path fill="#000000" stroke="#000000" stroke-width="3.0" stroke-linecap="butt" d="m442.8819 102.79509l13.614288 -4.9551926l-13.614288 -4.9552z" fill-rule="evenodd"/><path fill="#000000" fill-opacity="0.0" d="m580.44354 98.38058l848.00006 0" fill-rule="evenodd"/><path stroke="#000000" stroke-width="3.0" stroke-linejoin="round" stroke-linecap="butt" d="m598.44354 98.38058l812.00006 0" fill-rule="evenodd"/><path fill="#000000" stroke="#000000" stroke-width="3.0" stroke-linecap="butt" d="m598.44354 93.42538l-13.614258 4.9552l13.614258 4.9552z" fill-rule="evenodd"/><path fill="#000000" stroke="#000000" stroke-width="3.0" stroke-linecap="butt" d="m1410.4436 103.33578l13.614258 -4.9552l-13.614258 -4.9552z" fill-rule="evenodd"/><path fill="#000000" fill-opacity="0.0" d="m296.36746 43.577427l126.834625 0l0 42.01575l-126.834625 0z" fill-rule="evenodd"/><path fill="#000000" d="m309.3404 70.49743l0 -13.359379l9.15625 0l0 2.265625l-6.453125 0l0 3.15625l5.5625 0l0 2.2656288l-5.5625 0l0 5.671875l-2.703125 0zm11.380371 0l0 -13.359379l5.6875 0q2.140625 0 3.109375 0.359375q0.96875 0.359375 1.546875 1.28125q0.578125 0.921875 0.578125 2.109375q0 1.5 -0.890625 2.484375q-0.875 0.9687538 -2.625 1.2343788q0.875 0.5 1.4375 1.125q0.578125 0.609375 1.53125 2.15625l1.640625 2.609375l-3.234375 0l-1.9375 -2.90625q-1.046875 -1.5625 -1.4375 -1.96875q-0.375 -0.40625 -0.8125 -0.546875q-0.421875 -0.15625 -1.34375 -0.15625l-0.546875 0l0 5.578125l-2.703125 0zm2.703125 -7.703129l2.0 0q1.9375 0 2.421875 -0.15625q0.484375 -0.171875 0.75 -0.578125q0.28125 -0.40625 0.28125 -1.0q0 -0.671875 -0.359375 -1.078125q-0.359375 -0.421875 -1.015625 -0.53125q-0.328125 -0.046875 -1.96875 -0.046875l-2.109375 0l0 3.390625zm10.222931 1.109375q0 -2.046875 0.609375 -3.421875q0.453125 -1.03125 1.234375 -1.828125q0.796875 -0.8125 1.734375 -1.203125q1.25 -0.53125 2.875 -0.53125q2.953125 0 4.71875 1.828125q1.78125 1.828125 1.78125 5.09375q0 3.2343788 -1.765625 5.062504q-1.75 1.828125 -4.6875 1.828125q-2.984375 0 -4.75 -1.8125q-1.75 -1.828125 -1.75 -5.015629zm2.78125 -0.09375q0 2.2656288 1.046875 3.4375038q1.046875 1.171875 2.65625 1.171875q1.609375 0 2.640625 -1.15625q1.046875 -1.171875 1.046875 -3.4843788q0 -2.296875 -1.015625 -3.421875q-1.0 -1.140625 -2.671875 -1.140625q-1.671875 0 -2.6875 1.15625q-1.015625 1.140625 -1.015625 3.4375zm12.308319 6.687504l0 -13.359379l2.625 0l5.453125 8.921879l0 -8.921879l2.515625 0l0 13.359379l-2.703125 0l-5.390625 -8.703129l0 8.703129l-2.5 0zm16.44168 0l0 -11.093754l-3.953125 0l0 -2.265625l10.609375 0l0 2.265625l-3.953125 0l0 11.093754l-2.703125 0zm8.395996 0l0 -13.359379l9.90625 0l0 2.265625l-7.21875 0l0 2.953125l6.71875 0l0 2.2500038l-6.71875 0l0 3.640625l7.46875 0l0 2.25l-10.15625 0zm12.474823 0l0 -13.359379l2.625 0l5.453125 8.921879l0 -8.921879l2.515625 0l0 13.359379l-2.703125 0l-5.390625 -8.703129l0 8.703129l-2.5 0zm13.426056 -13.359379l4.9375 0q1.65625 0 2.53125 0.265625q1.1875 0.34375 2.015625 1.234375q0.84375 0.875 1.28125 2.15625q0.4375 1.28125 0.4375 3.15625q0 1.6406288 -0.40625 2.8437538q-0.5 1.453125 -1.4375 2.359375q-0.703125 0.671875 -1.890625 1.0625q-0.890625 0.28125 -2.390625 0.28125l-5.078125 0l0 -13.359379zm2.703125 2.265625l0 8.843754l2.015625 0q1.125 0 1.625 -0.125q0.65625 -0.171875 1.078125 -0.5625q0.4375 -0.390625 0.703125 -1.28125q0.28125 -0.90625 0.28125 -2.4531288q0 -1.546875 -0.28125 -2.375q-0.265625 -0.828125 -0.765625 -1.28125q-0.484375 -0.46875 -1.234375 -0.640625q-0.5625 -0.125 -2.21875 -0.125l-1.203125 0z" fill-rule="nonzero"/><path fill="#000000" fill-opacity="0.0" d="m948.90814 43.577427l126.834656 0l0 42.01575l-126.834656 0z" fill-rule="evenodd"/><path fill="#000000" d="m967.0442 57.13805l5.34375 0q1.59375 0 2.359375 0.140625q0.78125 0.125 1.390625 0.546875q0.625 0.421875 1.03125 1.125q0.40625 0.6875 0.40625 1.546875q0 0.9375 -0.5 1.734375q-0.5 0.78125 -1.375 1.171875q1.21875 0.359375 1.875 1.2187538q0.65625 0.84375 0.65625 2.0q0 0.921875 -0.421875 1.78125q-0.421875 0.859375 -1.15625 1.375q-0.734375 0.515625 -1.796875 0.625q-0.6875 0.078125 -3.265625 0.09375l-4.546875 0l0 -13.359379zm2.703125 2.234375l0 3.078125l1.765625 0q1.578125 0 1.953125 -0.046875q0.703125 -0.078125 1.09375 -0.46875q0.40625 -0.40625 0.40625 -1.046875q0 -0.625 -0.34375 -1.0q-0.34375 -0.390625 -1.015625 -0.484375q-0.40625 -0.03125 -2.3125 -0.03125l-1.546875 0zm0 5.296879l0 3.578125l2.5 0q1.453125 0 1.84375 -0.078125q0.609375 -0.109375 0.984375 -0.53125q0.375 -0.421875 0.375 -1.140625q0 -0.59375 -0.296875 -1.015625q-0.28125 -0.421875 -0.84375 -0.609375q-0.546875 -0.203125 -2.390625 -0.203125l-2.171875 0zm22.816711 5.828125l-2.9375 0l-1.171875 -3.03125l-5.328125 0l-1.109375 3.03125l-2.859375 0l5.203125 -13.359379l2.84375 0l5.359375 13.359379zm-4.96875 -5.28125l-1.84375 -4.953129l-1.796875 4.953129l3.640625 0zm14.941711 0.375l2.609375 0.828125q-0.59375 2.1875 -2.0 3.25q-1.390625 1.0625 -3.546875 1.0625q-2.65625 0 -4.375 -1.8125q-1.703125 -1.828125 -1.703125 -4.984379q0 -3.328125 1.71875 -5.171875q1.71875 -1.84375 4.515625 -1.84375q2.453125 0 3.984375 1.4375q0.921875 0.859375 1.375 2.46875l-2.671875 0.640625q-0.234375 -1.046875 -0.984375 -1.640625q-0.75 -0.609375 -1.828125 -0.609375q-1.484375 0 -2.421875 1.078125q-0.921875 1.0625 -0.921875 3.4375q0 2.5312538 0.90625 3.6093788q0.921875 1.078125 2.375 1.078125q1.078125 0 1.84375 -0.671875q0.78125 -0.6875 1.125 -2.15625zm4.9573364 4.90625l0 -13.359379l2.703125 0l0 5.9375l5.4375 -5.9375l3.625 0l-5.015625 5.203125l5.296875 8.156254l-3.484375 0l-3.671875 -6.265625l-2.1875 2.234375l0 4.03125l-2.703125 0zm13.44165 0l0 -13.359379l9.906311 0l0 2.265625l-7.218811 0l0 2.953125l6.718811 0l0 2.2500038l-6.718811 0l0 3.640625l7.468811 0l0 2.25l-10.156311 0zm12.4747925 0l0 -13.359379l2.625 0l5.453125 8.921879l0 -8.921879l2.515625 0l0 13.359379l-2.703125 0l-5.390625 -8.703129l0 8.703129l-2.5 0zm13.426147 -13.359379l4.9375 0q1.65625 0 2.53125 0.265625q1.1875 0.34375 2.015625 1.234375q0.84375 0.875 1.28125 2.15625q0.4375 1.28125 0.4375 3.15625q0 1.6406288 -0.40625 2.8437538q-0.5 1.453125 -1.4375 2.359375q-0.703125 0.671875 -1.890625 1.0625q-0.890625 0.28125 -2.390625 0.28125l-5.078125 0l0 -13.359379zm2.703125 2.265625l0 8.843754l2.015625 0q1.125 0 1.625 -0.125q0.65625 -0.171875 1.078125 -0.5625q0.4375 -0.390625 0.703125 -1.28125q0.28125 -0.90625 0.28125 -2.4531288q0 -1.546875 -0.28125 -2.375q-0.265625 -0.828125 -0.765625 -1.28125q-0.484375 -0.46875 -1.234375 -0.640625q-0.5625 -0.125 -2.21875 -0.125l-1.203125 0z" fill-rule="nonzero"/><path fill="#ffffff" d="m1237.8766 158.88715l201.13391 0l0 201.13385l-201.13391 0z" fill-rule="evenodd"/><path stroke="#000000" stroke-width="2.0" stroke-linejoin="round" stroke-linecap="butt" d="m1237.8766 158.88715l201.13391 0l0 201.13385l-201.13391 0z" fill-rule="evenodd"/><path fill="#000000" d="m1252.3792 172.44777l5.34375 0q1.59375 0 2.359375 0.140625q0.78125 0.125 1.390625 0.546875q0.625 0.421875 1.03125 1.125q0.40625 0.6875 0.40625 1.546875q0 0.9375 -0.5 1.734375q-0.5 0.78125 -1.375 1.171875q1.21875 0.359375 1.875 1.21875q0.65625 0.84375 0.65625 2.0q0 0.921875 -0.421875 1.78125q-0.421875 0.859375 -1.15625 1.375q-0.734375 0.515625 -1.796875 0.625q-0.6875 0.078125 -3.265625 0.09375l-4.546875 0l0 -13.359375zm2.703125 2.234375l0 3.078125l1.765625 0q1.578125 0 1.953125 -0.046875q0.703125 -0.078125 1.09375 -0.46875q0.40625 -0.40625 0.40625 -1.046875q0 -0.625 -0.34375 -1.0q-0.34375 -0.390625 -1.015625 -0.484375q-0.40625 -0.03125 -2.3125 -0.03125l-1.546875 0zm0 5.296875l0 3.578125l2.5 0q1.453125 0 1.84375 -0.078125q0.609375 -0.109375 0.984375 -0.53125q0.375 -0.421875 0.375 -1.140625q0 -0.59375 -0.296875 -1.015625q-0.28125 -0.421875 -0.84375 -0.609375q-0.546875 -0.203125 -2.390625 -0.203125l-2.171875 0zm22.816772 5.828125l-2.9375 0l-1.171875 -3.03125l-5.328125 0l-1.109375 3.03125l-2.859375 0l5.203125 -13.359375l2.84375 0l5.359375 13.359375zm-4.96875 -5.28125l-1.84375 -4.953125l-1.796875 4.953125l3.640625 0zm14.94165 0.375l2.609375 0.828125q-0.59375 2.1875 -2.0 3.25q-1.390625 1.0625 -3.546875 1.0625q-2.65625 0 -4.375 -1.8125q-1.703125 -1.828125 -1.703125 -4.984375q0 -3.328125 1.71875 -5.171875q1.71875 -1.84375 4.515625 -1.84375q2.453125 0 3.984375 1.4375q0.921875 0.859375 1.375 2.46875l-2.671875 0.640625q-0.234375 -1.046875 -0.984375 -1.640625q-0.75 -0.609375 -1.828125 -0.609375q-1.484375 0 -2.421875 1.078125q-0.921875 1.0625 -0.921875 3.4375q0 2.53125 0.90625 3.609375q0.921875 1.078125 2.375 1.078125q1.078125 0 1.84375 -0.671875q0.78125 -0.6875 1.125 -2.15625zm4.9573975 4.90625l0 -13.359375l2.703125 0l0 5.9375l5.4375 -5.9375l3.625 0l-5.015625 5.203125l5.296875 8.15625l-3.484375 0l-3.671875 -6.265625l-2.1875 2.234375l0 4.03125l-2.703125 0zm13.44165 0l0 -13.359375l9.90625 0l0 2.265625l-7.21875 0l0 2.953125l6.71875 0l0 2.25l-6.71875 0l0 3.640625l7.46875 0l0 2.25l-10.15625 0zm12.4748535 0l0 -13.359375l2.625 0l5.453125 8.921875l0 -8.921875l2.515625 0l0 13.359375l-2.703125 0l-5.390625 -8.703125l0 8.703125l-2.5 0zm13.426025 -13.359375l4.9375 0q1.65625 0 2.53125 0.265625q1.1875 0.34375 2.015625 1.234375q0.84375 0.875 1.28125 2.15625q0.4375 1.28125 0.4375 3.15625q0 1.640625 -0.40625 2.84375q-0.5 1.453125 -1.4375 2.359375q-0.703125 0.671875 -1.890625 1.0625q-0.890625 0.28125 -2.390625 0.28125l-5.078125 0l0 -13.359375zm2.703125 2.265625l0 8.84375l2.015625 0q1.125 0 1.625 -0.125q0.65625 -0.171875 1.078125 -0.5625q0.4375 -0.390625 0.703125 -1.28125q0.28125 -0.90625 0.28125 -2.453125q0 -1.546875 -0.28125 -2.375q-0.265625 -0.828125 -0.765625 -1.28125q-0.484375 -0.46875 -1.234375 -0.640625q-0.5625 -0.125 -2.21875 -0.125l-1.203125 0zm15.28125 6.75l2.625 -0.25q0.234375 1.3125 0.953125 1.9375q0.734375 0.609375 1.96875 0.609375q1.296875 0 1.953125 -0.546875q0.671875 -0.546875 0.671875 -1.28125q0 -0.484375 -0.28125 -0.8125q-0.28125 -0.328125 -0.96875 -0.578125q-0.484375 -0.15625 -2.171875 -0.578125q-2.15625 -0.546875 -3.03125 -1.328125q-1.234375 -1.09375 -1.234375 -2.6875q0 -1.015625 0.578125 -1.90625q0.578125 -0.890625 1.65625 -1.34375q1.09375 -0.46875 2.640625 -0.46875q2.515625 0 3.78125 1.109375q1.28125 1.09375 1.34375 2.9375l-2.703125 0.109375q-0.171875 -1.03125 -0.75 -1.46875q-0.5625 -0.453125 -1.703125 -0.453125q-1.171875 0 -1.84375 0.46875q-0.421875 0.3125 -0.421875 0.84375q0 0.46875 0.40625 0.796875q0.5 0.4375 2.46875 0.90625q1.96875 0.453125 2.90625 0.953125q0.953125 0.5 1.484375 1.359375q0.53125 0.859375 0.53125 2.125q0 1.15625 -0.640625 2.15625q-0.640625 1.0 -1.8125 1.484375q-1.15625 0.484375 -2.890625 0.484375q-2.53125 0 -3.890625 -1.171875q-1.359375 -1.171875 -1.625 -3.40625zm13.1311035 4.34375l0 -13.359375l9.90625 0l0 2.265625l-7.21875 0l0 2.953125l6.71875 0l0 2.25l-6.71875 0l0 3.640625l7.46875 0l0 2.25l-10.15625 0zm12.443481 0l0 -13.359375l5.6875 0q2.140625 0 3.109375 0.359375q0.96875 0.359375 1.546875 1.28125q0.578125 0.921875 0.578125 2.109375q0 1.5 -0.890625 2.484375q-0.875 0.96875 -2.625 1.234375q0.875 0.5 1.4375 1.125q0.578125 0.609375 1.53125 2.15625l1.640625 2.609375l-3.234375 0l-1.9375 -2.90625q-1.046875 -1.5625 -1.4375 -1.96875q-0.375 -0.40625 -0.8125 -0.546875q-0.421875 -0.15625 -1.34375 -0.15625l-0.546875 0l0 5.578125l-2.703125 0zm2.703125 -7.703125l2.0 0q1.9375 0 2.421875 -0.15625q0.484375 -0.171875 0.75 -0.578125q0.28125 -0.40625 0.28125 -1.0q0 -0.671875 -0.359375 -1.078125q-0.359375 -0.421875 -1.015625 -0.53125q-0.328125 -0.046875 -1.96875 -0.046875l-2.109375 0l0 3.390625zm13.838867 7.703125l-4.78125 -13.359375l2.9375 0l3.375 9.890625l3.265625 -9.890625l2.859375 0l-4.78125 13.359375l-2.875 0zm9.0373535 0l0 -13.359375l9.90625 0l0 2.265625l-7.21875 0l0 2.953125l6.71875 0l0 2.25l-6.71875 0l0 3.640625l7.46875 0l0 2.25l-10.15625 0zm12.4436035 0l0 -13.359375l5.6875 0q2.140625 0 3.109375 0.359375q0.96875 0.359375 1.546875 1.28125q0.578125 0.921875 0.578125 2.109375q0 1.5 -0.890625 2.484375q-0.875 0.96875 -2.625 1.234375q0.875 0.5 1.4375 1.125q0.578125 0.609375 1.53125 2.15625l1.640625 2.609375l-3.234375 0l-1.9375 -2.90625q-1.046875 -1.5625 -1.4375 -1.96875q-0.375 -0.40625 -0.8125 -0.546875q-0.421875 -0.15625 -1.34375 -0.15625l-0.546875 0l0 5.578125l-2.703125 0zm2.703125 -7.703125l2.0 0q1.9375 0 2.421875 -0.15625q0.484375 -0.171875 0.75 -0.578125q0.28125 -0.40625 0.28125 -1.0q0 -0.671875 -0.359375 -1.078125q-0.359375 -0.421875 -1.015625 -0.53125q-0.328125 -0.046875 -1.96875 -0.046875l-2.109375 0l0 3.390625z" fill-rule="nonzero"/><path fill="#d9ead3" d="m1304.6089 246.31783l0 0c0 -6.575363 5.3304443 -11.905746 11.905762 -11.905746l47.621582 0l0 0c3.1575928 0 6.185913 1.2543488 8.418701 3.4871063c2.232666 2.2327576 3.4870605 5.261032 3.4870605 8.41864l0 47.621567c0 6.5753784 -5.3303223 11.905762 -11.905762 11.905762l-47.621582 0c-6.5753174 0 -11.905762 -5.3303833 -11.905762 -11.905762z" fill-rule="evenodd"/><path stroke="#000000" stroke-width="1.0" stroke-linejoin="round" stroke-linecap="butt" d="m1304.6089 246.31783l0 0c0 -6.575363 5.3304443 -11.905746 11.905762 -11.905746l47.621582 0l0 0c3.1575928 0 6.185913 1.2543488 8.418701 3.4871063c2.232666 2.2327576 3.4870605 5.261032 3.4870605 8.41864l0 47.621567c0 6.5753784 -5.3303223 11.905762 -11.905762 11.905762l-47.621582 0c-6.5753174 0 -11.905762 -5.3303833 -11.905762 -11.905762z" fill-rule="evenodd"/><path fill="#000000" fill-opacity="0.0" d="m1049.6431 293.13123l254.96057 0" fill-rule="evenodd"/><path stroke="#000000" stroke-width="1.0" stroke-linejoin="round" stroke-linecap="butt" d="m1055.6431 293.13123l248.96057 0" fill-rule="evenodd"/><path fill="#000000" stroke="#000000" stroke-width="1.0" stroke-linecap="butt" d="m1055.6431 291.4795l-4.538086 1.6517334l4.538086 1.6517334z" fill-rule="evenodd"/><path fill="#000000" fill-opacity="0.0" d="m1049.6431 255.73491l253.16528 -0.3779602" fill-rule="evenodd"/><path stroke="#000000" stroke-width="1.0" stroke-linejoin="round" stroke-linecap="butt" d="m1049.6431 255.73491l247.16528 -0.36898804" fill-rule="evenodd"/><path fill="#000000" stroke="#000000" stroke-width="1.0" stroke-linecap="butt" d="m1296.8109 257.01764l4.5356445 -1.6585083l-4.5406494 -1.6449432z" fill-rule="evenodd"/><path fill="#000000" fill-opacity="0.0" d="m1174.4436 207.40945l0 130.80313" fill-rule="evenodd"/><path stroke="#000000" stroke-width="1.0" stroke-linejoin="round" stroke-linecap="butt" stroke-dasharray="1.0,3.0" d="m1174.4436 207.40945l0 130.80313" fill-rule="evenodd"/></g></svg>